<?xml version="1.0" standalone="no"?><!DOCTYPE svg PUBLIC "-//W3C//DTD SVG 1.1//EN" "http://www.w3.org/Graphics/SVG/1.1/DTD/svg11.dtd"><svg class="icon" width="200px" height="200.00px" viewBox="0 0 1024 1024" version="1.1" xmlns="http://www.w3.org/2000/svg"><path d="M512 512m-512 0a512 512 0 1 0 1024 0 512 512 0 1 0-1024 0Z" fill="#d4237a" /><path d="M219.607 366.114l-19.372 416.328a61.98 61.98 0 0 0 16.551 45.921 62.05 62.05 0 0 0 44.66 19.737h341.296c-38.716-49.167-45.951-116.129-18.633-172.436 27.333-56.302 84.398-92.061 146.983-92.072a162.792 162.792 0 0 1 90.896 27.821l-11.316-245.301c-0.945-26.438-22.512-47.479-48.978-47.755H668.95a37.082 37.082 0 0 0-29.301 14.358 798.57 798.57 0 0 0-72.063 111.757C547 483.34 524.271 523.688 505.64 556.331a6.107 6.107 0 0 0 0.11 7.438 6.126 6.126 0 0 0 7.218 1.836l60.458-20.961c11.688-4.313 24.781 0.384 31.07 11.125a24.62 24.62 0 0 1 1.384 20.715 24.678 24.678 0 0 1-14.916 14.438C538.655 609.47 459.172 636.65 452.5 639.06l-1.863 0.183-1.672 0.562a23.732 23.732 0 0 1-5 0.548c-1.56 0-3.107-0.166-4.643-0.469h-1.387l-2.971-0.914-1.671-0.755-2.412-1.382-1.574-1.03a23.23 23.23 0 0 1-2.415-2.024l-0.928-0.833a19.737 19.737 0 0 1-7.234-16.604l-32.355-145.516c-2.92-12.044 3.164-24.428 14.465-29.495a24.713 24.713 0 0 1 20.795 1.014 24.772 24.772 0 0 1 12.688 16.521l16.314 73.537a6.113 6.113 0 0 0 5.015 4.851 6.12 6.12 0 0 0 6.303-2.985c18.551-32.742 41.644-73.458 62.415-112.501a840.673 840.673 0 0 1 51.019-84.115 12.357 12.357 0 0 0 0.709-12.726 12.315 12.315 0 0 0-10.916-6.563h-296.6c-26.466 0.267-48.03 21.311-48.975 47.75zM386.63 284.14a23.585 23.585 0 0 0 22.453-9.372c27.139-32.934 67.526-52.086 110.199-52.223a143.345 143.345 0 0 1 110.542 51.483 23.586 23.586 0 0 0 22.425 8.905 23.603 23.603 0 0 0 18.495-15.507 23.56 23.56 0 0 0-4.852-23.646 190.065 190.065 0 0 0-146.076-68.25 189.924 189.924 0 0 0-146.995 69.278 23.556 23.556 0 0 0-4.959 23.823 23.602 23.602 0 0 0 18.768 15.509z" fill="#ffffff" /><path d="M813.396 828.363a62.046 62.046 0 0 0 16.563-45.922l-8.343-171.572a162.708 162.708 0 0 0-90.523-27.275c-62.582 0.015-119.651 35.771-146.985 92.073-27.316 56.305-20.084 123.267 18.636 172.436h166.008a62.017 62.017 0 0 0 44.644-19.74z" fill="#ffffff" /></svg>