<?xml version="1.0" standalone="no"?><!DOCTYPE svg PUBLIC "-//W3C//DTD SVG 1.1//EN" "http://www.w3.org/Graphics/SVG/1.1/DTD/svg11.dtd"><svg class="icon" width="200px" height="200.00px" viewBox="0 0 1024 1024" version="1.1" xmlns="http://www.w3.org/2000/svg"><path d="M512 1006.933333a494.933333 494.933333 0 1 1 437.077333-262.656 32.938667 32.938667 0 1 1-58.197333-31.061333A428.885333 428.885333 0 1 0 747.178667 870.4a34.133333 34.133333 0 0 1 45.738666 9.557333 32.768 32.768 0 0 1-9.557333 45.568A491.690667 491.690667 0 0 1 512 1006.933333z" fill="#040000" /><path d="M482.474667 671.232a99.84 99.84 0 0 1-71.509334-30.037333l-98.816-99.84A32.938667 32.938667 0 0 1 358.4 494.933333l98.645333 99.84a34.133333 34.133333 0 0 0 25.088 10.410667 34.133333 34.133333 0 0 0 24.917334-10.24l232.789333-232.448A32.938667 32.938667 0 0 1 786.602667 409.6L553.984 641.536a100.522667 100.522667 0 0 1-71.509333 29.696z" fill="#231815" /></svg>