<?xml version="1.0" standalone="no"?><!DOCTYPE svg PUBLIC "-//W3C//DTD SVG 1.1//EN" "http://www.w3.org/Graphics/SVG/1.1/DTD/svg11.dtd"><svg class="icon" width="200px" height="200.00px" viewBox="0 0 1024 1024" version="1.1" xmlns="http://www.w3.org/2000/svg"><path d="M512 1006.933333a494.933333 494.933333 0 1 1 437.077333-262.656 32.938667 32.938667 0 1 1-58.197333-31.061333A428.885333 428.885333 0 1 0 747.178667 870.4a34.133333 34.133333 0 0 1 45.738666 9.557333 32.768 32.768 0 0 1-9.557333 45.568A491.690667 491.690667 0 0 1 512 1006.933333z" fill="#231815" /><path d="M523.264 602.965333a33.109333 33.109333 0 0 1-32.938667-33.109333V306.005333a33.109333 33.109333 0 1 1 66.048 0v263.850667a33.109333 33.109333 0 0 1-33.109333 33.109333z" fill="#231815" /><path d="M626.005333 673.962667a34.133333 34.133333 0 0 1-23.210666-9.557334L460.8 522.069333a32.938667 32.938667 0 0 1 46.762667-46.592l142.165333 142.165334a32.938667 32.938667 0 0 1 0 46.762666 34.133333 34.133333 0 0 1-23.722667 9.557334z" fill="#231815" /></svg>