<?xml version="1.0" standalone="no"?><!DOCTYPE svg PUBLIC "-//W3C//DTD SVG 1.1//EN" "http://www.w3.org/Graphics/SVG/1.1/DTD/svg11.dtd"><svg class="icon" width="200px" height="200.00px" viewBox="0 0 1024 1024" version="1.1" xmlns="http://www.w3.org/2000/svg"><path d="M796.16 1006.933333h-568.32A210.944 210.944 0 0 1 17.066667 796.16v-568.32A210.944 210.944 0 0 1 227.84 17.066667h568.32A210.944 210.944 0 0 1 1006.933333 227.84v265.898667a31.914667 31.914667 0 1 1-63.658666 0V227.84a147.114667 147.114667 0 0 0-147.114667-147.114667h-568.32a147.114667 147.114667 0 0 0-147.114667 147.114667v568.32a147.114667 147.114667 0 0 0 147.114667 147.114667h568.32a147.114667 147.114667 0 0 0 147.114667-147.114667 31.914667 31.914667 0 0 1 63.658666 0A210.944 210.944 0 0 1 796.16 1006.933333z" fill="#231815" /><path d="M812.202667 505.514667a34.133333 34.133333 0 0 1-24.064-10.581334L543.914667 251.392a46.762667 46.762667 0 0 0-34.133334-13.994667 47.616 47.616 0 0 0-34.133333 14.165334L236.032 494.933333A34.133333 34.133333 0 0 1 187.733333 447.488l240.128-243.712a115.370667 115.370667 0 0 1 82.090667-34.133333 115.029333 115.029333 0 0 1 81.92 34.133333L836.266667 447.317333a34.133333 34.133333 0 0 1-24.234667 58.197334z" fill="#231815" /><path d="M512 854.869333a34.133333 34.133333 0 0 1-34.133333-34.133333V210.602667a34.133333 34.133333 0 0 1 68.266666 0v610.133333a34.133333 34.133333 0 0 1-34.133333 34.133333z" fill="#231815" /></svg>