<?xml version="1.0" standalone="no"?><!DOCTYPE svg PUBLIC "-//W3C//DTD SVG 1.1//EN" "http://www.w3.org/Graphics/SVG/1.1/DTD/svg11.dtd"><svg class="icon" width="200px" height="200.00px" viewBox="0 0 1024 1024" version="1.1" xmlns="http://www.w3.org/2000/svg"><path d="M688.469333 247.637333V631.466667h-361.813333V247.637333h361.813333m40.277334-65.877333H286.378667a24.917333 24.917333 0 0 0-24.576 24.917333v465.408a24.917333 24.917333 0 0 0 24.576 25.088H728.746667a24.917333 24.917333 0 0 0 24.576-25.088V206.677333a24.917333 24.917333 0 0 0-24.576-24.917333z" fill="#231815" /><path d="M713.045333 1006.933333H310.954667A192.170667 192.170667 0 0 1 119.466667 813.909333V210.090667A192.170667 192.170667 0 0 1 310.954667 17.066667h402.090666A192.170667 192.170667 0 0 1 904.533333 210.090667v453.632a32.426667 32.426667 0 1 1-64.682666 0V210.090667a126.805333 126.805333 0 0 0-126.464-126.976H310.954667a126.805333 126.805333 0 0 0-126.464 126.976v603.818666a126.805333 126.805333 0 0 0 126.464 126.976h402.090666a126.805333 126.805333 0 0 0 126.464-126.976 32.426667 32.426667 0 1 1 64.682667 0A192.170667 192.170667 0 0 1 713.045333 1006.933333z" fill="#231815" /><path d="M598.186667 863.061333H419.498667a33.109333 33.109333 0 0 1 0-66.048h178.688a33.109333 33.109333 0 0 1 0 66.048z" fill="#231815" /></svg>