<?xml version="1.0" standalone="no"?><!DOCTYPE svg PUBLIC "-//W3C//DTD SVG 1.1//EN" "http://www.w3.org/Graphics/SVG/1.1/DTD/svg11.dtd"><svg class="icon" width="200px" height="200.00px" viewBox="0 0 1024 1024" version="1.1" xmlns="http://www.w3.org/2000/svg"><path d="M512 512m-512 0a512 512 0 1 0 1024 0 512 512 0 1 0-1024 0Z" fill="#8a8a8a" /><path d="M379.050667 331.246933c-25.429333 56.405333-11.9808 121.617067 34.013866 165.102934 46.011733 43.502933 115.490133 56.6784 175.957334 33.3824 60.433067-23.296 99.8912-78.455467 99.908266-139.690667 0.290133-83.029333-71.202133-150.613333-159.829333-151.108267-65.365333-0.546133-124.6208 35.908267-150.033067 92.3136z m26.845866 206.404267C338.261333 579.328 290.133333 648.123733 290.133333 723.968c0 5.034667 53.589333 61.098667 249.582934 61.098667C735.6928 785.066667 768 723.968 768 723.968c0-67.84-48.0768-144.6912-115.7632-186.3168-71.611733 54.954667-174.6944 54.954667-246.340267 0z" fill="#ffffff" /></svg>