<?xml version="1.0" standalone="no"?><!DOCTYPE svg PUBLIC "-//W3C//DTD SVG 1.1//EN" "http://www.w3.org/Graphics/SVG/1.1/DTD/svg11.dtd"><svg class="icon" width="200px" height="200.00px" viewBox="0 0 1024 1024" version="1.1" xmlns="http://www.w3.org/2000/svg"><path d="M735.232 902.826667H256a58.368 58.368 0 0 1-56.32-42.154667L11.605333 431.104v-3.072a58.709333 58.709333 0 0 1 77.482667-68.266667l4.778667 2.218667 223.573333 128.170667 130.56-236.373334a58.709333 58.709333 0 0 1 100.010667 0l128 235.861334 244.224-129.706667a58.709333 58.709333 0 0 1 77.312 69.461333l-2.218667 5.973334-204.8 426.666666a58.709333 58.709333 0 0 1-55.296 40.789334z m-474.965333-63.658667h471.210666L928.426667 428.202667l-233.984 124.245333a58.709333 58.709333 0 0 1-70.485334-24.746667l-126.293333-232.277333L368.981333 529.066667a59.221333 59.221333 0 0 1-69.973333 24.064l-4.778667-2.218667-214.357333-122.709333z" fill="#f4ea2a" /><path d="M495.786667 292.181333a132.437333 132.437333 0 1 1 132.437333-132.266666 132.608 132.608 0 0 1-132.437333 132.266666z m0-201.045333a68.266667 68.266667 0 1 0 68.266666 68.266667 68.266667 68.266667 0 0 0-68.266666-68.266667z" fill="#f4ea2a" /></svg>